<svg xmlns="http://www.w3.org/2000/svg" width="48" height="48" viewBox="0 0 48 48" id="arrow-right"><g fill="none" fill-rule="evenodd"><polygon points="0 0 48 0 48 48 0 48"></polygon><path fill="#31303D" d="M12.4636076,34.7196813 L20.969844,24.5121977 C21.2170746,24.2155209 21.2170746,23.7845794 20.969844,23.4879026 L12.4636076,13.2804189 C11.7564794,12.4318652 11.8711276,11.1707358 12.7196813,10.4636076 C13.5682351,9.75647943 14.8293645,9.87112756 15.5364927,10.7196813 L25.5364927,22.7196813 C26.1545693,23.4613733 26.1545693,24.538727 25.5364927,25.2804189 L15.5364927,37.2804189 C14.8293645,38.1289727 13.5682351,38.2436209 12.7196813,37.5364927 C11.8711276,36.8293645 11.7564794,35.5682351 12.4636076,34.7196813 Z M22.4636076,34.7196813 L30.969844,24.5121977 C31.2170746,24.2155209 31.2170746,23.7845794 30.969844,23.4879026 L22.4636076,13.2804189 C21.7564794,12.4318652 21.8711276,11.1707358 22.7196813,10.4636076 C23.5682351,9.75647943 24.8293645,9.87112756 25.5364927,10.7196813 L35.5364927,22.7196813 C36.1545693,23.4613733 36.1545693,24.538727 35.5364927,25.2804189 L25.5364927,37.2804189 C24.8293645,38.1289727 23.5682351,38.2436209 22.7196813,37.5364927 C21.8711276,36.8293645 21.7564794,35.5682351 22.4636076,34.7196813 Z"></path></g></svg>